{"scene":0,"asset":{"generator":"ImageToStl.com","version":"2.0"},"scenes":[{"name":"Scene","nodes":[0]}],"nodes":[{"name":"Node0","children":[1,2]},{"name":"Node1","mesh":0},{"name":"Node2","mesh":1}],"materials":[{"name":"x1","pbrMetallicRoughness":{"baseColorFactor":[0.0,0.0,0.0,1.0],"metallicFactor":0.0,"roughnessFactor":1.0},"doubleSided":true}],"meshes":[{"name":"Mesh0","primitives":[{"indices":3,"material":0,"attributes":{"POSITION":0,"NORMAL":1,"TEXCOORD_0":2}}]},{"name":"Mesh0","primitives":[{"indices":7,"material":0,"attributes":{"POSITION":4,"NORMAL":5,"TEXCOORD_0":6}}]}],"accessors":[{"bufferView":0,"componentType":5126,"count":1488,"type":"VEC3","min":[-6.854103,3.0959291,-0.856571],"max":[-0.16779685,3.3771074,1.8721676]},{"bufferView":1,"componentType":5126,"count":1488,"type":"VEC3"},{"bufferView":2,"componentType":5126,"count":1488,"type":"VEC2"},{"bufferView":3,"componentType":5123,"count":21663,"type":"SCALAR"},{"bufferView":4,"componentType":5126,"count":612,"type":"VEC3","min":[-9.004128,76.38385,20.94966],"max":[-0.6515684,76.38992,23.036089]},{"bufferView":5,"componentType":5126,"count":612,"type":"VEC3"},{"bufferView":6,"componentType":5126,"count":612,"type":"VEC2"},{"bufferView":7,"componentType":5123,"count":8892,"type":"SCALAR"}],"bufferViews":[{"target":34962,"buffer":0,"byteLength":17856,"byteOffset":0},{"target":34962,"buffer":0,"byteLength":17856,"byteOffset":17856},{"target":34962,"buffer":0,"byteLength":11904,"byteOffset":35712},{"target":34963,"buffer":0,"byteLength":43326,"byteOffset":47616},{"target":34962,"buffer":0,"byteLength":7344,"byteOffset":90944},{"target":34962,"buffer":0,"byteLength":7344,"byteOffset":98288},{"target":34962,"buffer":0,"byteLength":4896,"byteOffset":105632},{"target":34963,"buffer":0,"byteLength":17784,"byteOffset":110528}],"buffers":[{"byteLength":128312,"uri":"data:application/octet-stream;base64,"}]}